<mxfile host="app.diagrams.net" modified="2022-07-06T12:33:26.647Z" agent="5.0 (Windows NT 10.0; Win64; x64) AppleWebKit/537.36 (KHTML, like Gecko) Chrome/100.0.4896.160 YaBrowser/22.5.4.904 Yowser/2.5 Safari/537.36" etag="Yrpor0xqFlr-RomSbfYa" version="20.0.4" type="github">
  <diagram id="jJGRw95dWDgaeLlw6LhA" name="Page-1">
    <mxGraphModel dx="1422" dy="765" grid="1" gridSize="10" guides="1" tooltips="1" connect="1" arrows="1" fold="1" page="1" pageScale="1" pageWidth="827" pageHeight="1169" math="0" shadow="0">
      <root>
        <mxCell id="0" />
        <mxCell id="1" parent="0" />
        <mxCell id="5KVS-R2hr6FTwqYqiyv3-1" value="" style="rounded=1;whiteSpace=wrap;html=1;" vertex="1" parent="1">
          <mxGeometry x="354" y="20" width="120" height="60" as="geometry" />
        </mxCell>
        <mxCell id="5KVS-R2hr6FTwqYqiyv3-2" value="" style="rounded=1;whiteSpace=wrap;html=1;" vertex="1" parent="1">
          <mxGeometry x="354" y="590" width="120" height="60" as="geometry" />
        </mxCell>
        <mxCell id="5KVS-R2hr6FTwqYqiyv3-3" value="Генерация случайных чисел и запись их в массив" style="rounded=0;whiteSpace=wrap;html=1;" vertex="1" parent="1">
          <mxGeometry x="296" y="200" width="236" height="60" as="geometry" />
        </mxCell>
        <mxCell id="5KVS-R2hr6FTwqYqiyv3-4" value="Ввод размера массива N" style="shape=parallelogram;perimeter=parallelogramPerimeter;whiteSpace=wrap;html=1;fixedSize=1;" vertex="1" parent="1">
          <mxGeometry x="354" y="100" width="120" height="60" as="geometry" />
        </mxCell>
      </root>
    </mxGraphModel>
  </diagram>
</mxfile>
